<?xml version="1.0" encoding="UTF-8" standalone="no"?>
<!-- Created with Inkscape (http://www.inkscape.org/) -->

<svg
   viewBox="0 0 300 300.00003"
   version="1.1"
   id="svg1"
   xml:space="preserve"
   xmlns:xlink="http://www.w3.org/1999/xlink"
   xmlns="http://www.w3.org/2000/svg"
   xmlns:svg="http://www.w3.org/2000/svg"><defs
     id="defs1" /><g
     id="layer14"
     transform="translate(63.033784,741.16264)"><g
       id="g1547"
       transform="translate(-2.6679688e-4,2683.5034)"><g
         id="g1453"
         transform="translate(-384.82545)"><rect
           style="display:inline;fill:#ffffc4;fill-opacity:1;stroke:none;stroke-width:11.0682;stroke-linecap:round"
           id="rect1425"
           width="300"
           height="300"
           x="321.79193"
           y="-3424.666" /><path
           id="path1444"
           style="fill:#ffffff;stroke-width:0.384615;stroke-linecap:round;stroke-miterlimit:3.1"
           d="m 367.0461,-3401.5042 a 33.072918,33.072918 0 0 1 33.013,33.1178 33.072918,33.072918 0 0 1 -33.1029,33.028 33.072918,33.072918 0 0 1 -33.0429,-33.0879 33.072918,33.072918 0 0 1 33.0729,-33.0579" /><g
           id="g1452"
           style="font-size:42.8992px;line-height:0.85;font-family:Stengazeta;-inkscape-font-specification:Stengazeta;display:inline;stroke:#ffffc4;stroke-width:1.124"
           transform="matrix(1.789828,0,0,0.55871291,1727.5861,-2683.5033)"
           aria-label="B&#10;O&#10;S&#10;S&#10; &#10;F&#10;R&#10;O&#10;G"><path
             d="m -625.07944,-1267.8334 q 0.17159,0.5148 0.17159,1.2441 v 7.5073 q 0,1.0296 -0.38609,1.9734 -0.38609,0.9009 -1.07248,1.5873 -0.68639,0.6864 -1.63017,1.0725 -0.90088,0.3861 -1.93046,0.3861 h -9.60942 q -0.3861,0 -0.3861,-0.3861 v -29.2573 q 0,-0.3861 0.3861,-0.3861 h 8.36534 q 0.72929,0 1.24408,0.1716 1.63017,0.429 2.70265,1.7589 1.07248,1.287 1.07248,3.0887 v 4.9763 q 0,1.8447 -1.15828,3.2175 0.81508,0.4719 1.41567,1.3298 0.60059,0.8151 0.81509,1.716 z m -9.82392,-11.2396 v 7.5074 h 3.34614 q 0.38609,0 0.38609,-0.429 v -6.6923 q 0,-0.3861 -0.38609,-0.3861 z m 0,19.991 h 4.59021 q 0.3861,0 0.3861,-0.386 v -6.6923 q 0,-0.429 -0.3861,-0.429 h -4.59021 z"
             id="path1445" /><path
             d="m -629.92705,-1247.6279 q 1.02958,0 1.93046,0.3861 0.94378,0.3861 1.63017,1.0725 0.68639,0.6864 1.07248,1.6302 0.38609,0.9009 0.38609,1.9304 v 19.9911 q 0,1.0296 -0.38609,1.9733 -0.38609,0.9009 -1.07248,1.5873 -0.68639,0.6864 -1.63017,1.0725 -0.90088,0.3861 -1.93046,0.3861 h -4.97631 q -1.02958,0 -1.97336,-0.3861 -0.90089,-0.3861 -1.58727,-1.0725 -0.68639,-0.6864 -1.07248,-1.5873 -0.3861,-0.9437 -0.3861,-1.9733 v -19.9911 q 0,-1.0295 0.3861,-1.9304 0.38609,-0.9438 1.07248,-1.6302 0.68638,-0.6864 1.58727,-1.0725 0.94378,-0.3861 1.97336,-0.3861 z m -0.3861,25.0103 q 0.3861,0 0.3861,-0.3861 v -19.2189 q 0,-0.3861 -0.3861,-0.3861 h -4.20412 q -0.38609,0 -0.38609,0.3861 v 19.2189 q 0,0.3861 0.38609,0.3861 z"
             id="path1446" /><path
             d="m -629.92705,-1203.9565 v -1.8017 q 0,-0.3861 -0.3861,-0.3861 h -4.20412 q -0.38609,0 -0.38609,0.3861 v 3.3461 q 0,1.5444 0.72929,2.3166 0.77218,0.7721 1.84466,1.244 1.11538,0.429 2.40236,0.858 1.32987,0.3861 2.40235,1.2441 1.11538,0.858 1.84467,2.4452 0.77218,1.5873 0.77218,4.4187 v 3.7322 q 0,1.0296 -0.38609,1.9734 -0.38609,0.9008 -1.07248,1.5872 -0.68639,0.6864 -1.63017,1.0725 -0.90088,0.3861 -1.93046,0.3861 h -4.97631 q -1.02958,0 -1.97336,-0.3861 -0.90089,-0.429 -1.58727,-1.0725 -0.68639,-0.6864 -1.07248,-1.5872 -0.3861,-0.9438 -0.3861,-1.9734 v -3.2174 q 0,-0.2145 0.1287,-0.3432 0.1716,-0.1287 0.38609,-0.043 l 4.20412,1.0295 q 0.3003,0.086 0.3003,0.3861 v 1.8018 q 0,0.3861 0.38609,0.3861 h 4.20412 q 0.3861,0 0.3861,-0.3861 v -3.3461 q 0,-1.5873 -0.77219,-2.3166 -0.72929,-0.7722 -1.84467,-1.2012 -1.07248,-0.4719 -2.40235,-0.858 -1.28698,-0.4289 -2.40236,-1.2869 -1.07248,-0.858 -1.84466,-2.4453 -0.72929,-1.5873 -0.72929,-4.4186 v -3.7322 q 0,-1.0296 0.3861,-1.9305 0.38609,-0.9438 1.07248,-1.6302 0.68638,-0.6864 1.58727,-1.0724 0.94378,-0.3861 1.97336,-0.3861 h 4.97631 q 1.02958,0 1.93046,0.3861 0.94378,0.386 1.63017,1.0724 0.68639,0.6864 1.07248,1.6302 0.38609,0.9009 0.38609,1.9305 v 3.2174 q 0,0.2145 -0.17159,0.3432 -0.1287,0.1287 -0.3432,0.043 l -4.20412,-1.0296 q -0.30029,-0.086 -0.30029,-0.3861 z"
             id="path1447" /><path
             d="m -629.92705,-1167.4922 v -1.8017 q 0,-0.3861 -0.3861,-0.3861 h -4.20412 q -0.38609,0 -0.38609,0.3861 v 3.3461 q 0,1.5444 0.72929,2.3166 0.77218,0.7722 1.84466,1.2441 1.11538,0.4289 2.40236,0.8579 1.32987,0.3861 2.40235,1.2441 1.11538,0.858 1.84467,2.4453 0.77218,1.5872 0.77218,4.4186 v 3.7322 q 0,1.0296 -0.38609,1.9734 -0.38609,0.9009 -1.07248,1.5872 -0.68639,0.6864 -1.63017,1.0725 -0.90088,0.3861 -1.93046,0.3861 h -4.97631 q -1.02958,0 -1.97336,-0.3861 -0.90089,-0.429 -1.58727,-1.0725 -0.68639,-0.6863 -1.07248,-1.5872 -0.3861,-0.9438 -0.3861,-1.9734 v -3.2174 q 0,-0.2145 0.1287,-0.3432 0.1716,-0.1287 0.38609,-0.043 l 4.20412,1.0296 q 0.3003,0.086 0.3003,0.3861 v 1.8017 q 0,0.3861 0.38609,0.3861 h 4.20412 q 0.3861,0 0.3861,-0.3861 v -3.3461 q 0,-1.5873 -0.77219,-2.3166 -0.72929,-0.7722 -1.84467,-1.2012 -1.07248,-0.4718 -2.40235,-0.8579 -1.28698,-0.429 -2.40236,-1.287 -1.07248,-0.858 -1.84466,-2.4453 -0.72929,-1.5872 -0.72929,-4.4186 v -3.7322 q 0,-1.0296 0.3861,-1.9305 0.38609,-0.9438 1.07248,-1.6301 0.68638,-0.6864 1.58727,-1.0725 0.94378,-0.3861 1.97336,-0.3861 h 4.97631 q 1.02958,0 1.93046,0.3861 0.94378,0.3861 1.63017,1.0725 0.68639,0.6863 1.07248,1.6301 0.38609,0.9009 0.38609,1.9305 v 3.2174 q 0,0.2145 -0.17159,0.3432 -0.1287,0.1287 -0.3432,0.043 l -4.20412,-1.0296 q -0.30029,-0.086 -0.30029,-0.3861 z"
             id="path1448" /><path
             d="m -624.90785,-1101.3845 -1.15828,4.3328 q -0.0858,0.3003 -0.38609,0.3003 h -8.45114 v 7.5074 h 4.59021 q 0.3861,0 0.3861,0.3861 v 4.2041 q 0,0.3861 -0.3861,0.3861 h -4.59021 v 12.1405 q 0,0.3861 -0.42899,0.3861 h -4.20412 q -0.3861,0 -0.3861,-0.3861 v -29.2573 q 0,-0.3861 0.3861,-0.3861 h 14.24253 q 0.38609,0 0.38609,0.3861 z"
             id="path1449" /><path
             d="m -639.92257,-1064.9202 q 0,-0.3861 0.3861,-0.3861 h 9.60942 q 1.02958,0 1.93046,0.3861 0.94378,0.3861 1.63017,1.0725 0.68639,0.6864 1.07248,1.6302 0.38609,0.9009 0.38609,1.9305 v 7.5073 q 0,1.7589 -1.07248,3.0888 -1.07248,1.2869 -2.70265,1.7588 l 3.60354,12.1405 q 0.0858,0.2145 -0.0429,0.3861 -0.0858,0.1287 -0.3003,0.1287 h -4.20412 q -0.2145,0 -0.38609,-0.3003 l -3.64643,-12.2263 h -1.24408 v 12.1405 q 0,0.3861 -0.42899,0.3861 h -4.20412 q -0.3861,0 -0.3861,-0.3861 z m 5.01921,4.6332 v 7.5073 h 4.59021 q 0.3861,0 0.3861,-0.429 v -6.6923 q 0,-0.386 -0.3861,-0.386 z"
             id="path1450" /><path
             d="m -629.92705,-1028.8419 q 1.02958,0 1.93046,0.3861 0.94378,0.3861 1.63017,1.0724 0.68639,0.6864 1.07248,1.6302 0.38609,0.9009 0.38609,1.9305 v 19.991 q 0,1.0296 -0.38609,1.9734 -0.38609,0.9008 -1.07248,1.5872 -0.68639,0.68642 -1.63017,1.07251 -0.90088,0.3861 -1.93046,0.3861 h -4.97631 q -1.02958,0 -1.97336,-0.3861 -0.90089,-0.38609 -1.58727,-1.07251 -0.68639,-0.6864 -1.07248,-1.5872 -0.3861,-0.9438 -0.3861,-1.9734 v -19.991 q 0,-1.0296 0.3861,-1.9305 0.38609,-0.9438 1.07248,-1.6302 0.68638,-0.6863 1.58727,-1.0724 0.94378,-0.3861 1.97336,-0.3861 z m -0.3861,25.0102 q 0.3861,0 0.3861,-0.3861 v -19.2188 q 0,-0.3861 -0.3861,-0.3861 h -4.20412 q -0.38609,0 -0.38609,0.3861 v 19.2188 q 0,0.3861 0.38609,0.3861 z"
             id="path1451" /><path
             d="m -629.92705,-983.92647 v -3.04584 q 0,-0.3861 -0.3861,-0.3861 h -4.20412 q -0.38609,0 -0.38609,0.3861 v 19.21884 q 0,0.38609 0.38609,0.38609 h 4.20412 q 0.3861,0 0.3861,-0.38609 v -4.59022 h -1.97337 q -0.21449,0 -0.34319,-0.12869 -0.1287,-0.1716 -0.0429,-0.3861 l 1.02958,-4.20412 q 0.0858,-0.30029 0.42899,-0.30029 h 5.534 q 0.38609,0 0.38609,0.38609 v 9.60942 q 0,1.02958 -0.38609,1.97336 -0.38609,0.90089 -1.07248,1.58727 -0.68639,0.68639 -1.63017,1.07248 -0.90088,0.3861 -1.93046,0.3861 h -4.97631 q -1.02958,0 -1.97336,-0.3861 -0.90089,-0.38609 -1.58727,-1.07248 -0.68639,-0.68638 -1.07248,-1.58727 -0.3861,-0.94378 -0.3861,-1.97336 v -19.99103 q 0,-1.02958 0.3861,-1.93046 0.38609,-0.94378 1.07248,-1.63017 0.68638,-0.68639 1.58727,-1.07248 0.94378,-0.38609 1.97336,-0.38609 h 4.97631 q 1.02958,0 1.93046,0.38609 0.94378,0.38609 1.63017,1.07248 0.68639,0.68639 1.07248,1.63017 0.38609,0.90088 0.38609,1.93046 v 4.59022 q 0,0.38609 -0.38609,0.38609 l -4.33282,-1.15828 q -0.30029,-0.0858 -0.30029,-0.38609 z"
             id="path1452" /></g></g><g
         id="g1546"><path
           style="fill:#98953d;fill-opacity:1;stroke:none;stroke-width:0.264583px;stroke-linecap:butt;stroke-linejoin:miter;stroke-opacity:1"
           d="m 115.64726,-3348.3994 c 6.50266,-11.5614 26.29965,-14.0772 31.4334,2.1799 0.4237,3.2896 1.37218,6.4377 2.28553,9.6126 z"
           id="path1453" /><path
           style="fill:#98953d;fill-opacity:1;stroke:none;stroke-width:0.264583px;stroke-linecap:butt;stroke-linejoin:miter;stroke-opacity:1"
           d="m 68.162611,-3333.918 c 27.545003,-30.7051 66.096209,-13.3226 93.101789,2.8234 8.02852,6.0248 20.26839,22.1436 6.41968,29.3758 2.98674,5.0885 3.08146,6.7787 -2.58803,12.8393 -4.05831,2.6303 -7.47338,5.9695 -10.28489,9.8816 -3.47767,6.0067 -4.46385,7.0075 -12.23432,13.9147 2.78592,6.785 3.07889,10.9497 1.81498,18.2171 12.72229,33.2336 -6.30873,37.7661 7.50574,52.1685 5.98445,6.0955 18.14019,21.5283 3.11526,22.6491 -1.80935,3.8166 -3.20537,4.6254 -7.39437,4.9744 l -2.8233,-0.8067 -3.57427,1.4951 c -3.79138,1.431 -3.96212,1.3449 -7.5845,0.5215 -5.15151,-2.6639 -5.26876,-1.8507 -15.46095,-3.361 -1.70375,-0.4986 -2.87256,0.031 -4.47699,0.5946 9.48402,5.2494 7.3936,10.1968 5.35085,12.6478 1.63871,7.0184 -1.32856,8.0715 -7.66327,10.3524 l -2.21831,0.672 -2.68886,2.2183 c -5.34799,3.5856 -10.170599,3.7436 -16.334827,2.8234 -17.621028,-2.5065 -29.533268,-9.1673 -39.379029,-19.2072 -5.052428,0.4289 -9.880866,-0.9513 -14.545012,-2.757 -7.924999,2.7648 -9.363554,2.7448 -17.250034,0.2353 l -2.137576,-0.2017 c -8.8402477,2.6017 -14.3432965,-1.4272 -16.73730643,-9.54 0.15883424,-8.3759 -1.18494187,-13.6887 -3.61249167,-21.3897 l -0.4753279,-3.7077 c -38.807429,-14.5537 -20.659133,-58.6916 -0.9506556,-50.4798 7.1296223,0.5278 5.53818987,-2.6023 11.5029339,-1.8063 -3.38412,-11.6295 -2.8752917,-14.347 2.4717053,-24.7171 3.2074244,-2.7555 5.4862784,-6.1756 7.8904424,-9.6015 4.171135,-4.1412 11.788791,-9.0896 19.781272,-13.1844 2.798829,-1.3197 4.397559,-4.1246 6.318821,-6.4535 2.100912,-6.1464 3.513347,-7.6894 7.797697,-12.0997 5.179133,-8.8948 9.234639,-13.2989 17.343149,-19.091 z"
           id="path1454" /><path
           style="fill:#166d00;fill-opacity:1;stroke:none;stroke-width:0.264583px;stroke-linecap:butt;stroke-linejoin:miter;stroke-opacity:1"
           d="m 140.0224,-3263.6042 c -8.52981,8.0434 -11.70294,4.6152 -20.43534,0.1345 7.94231,7.4433 10.07666,9.9706 20.36812,5.3104 z"
           id="path1455" /><path
           style="fill:#98953d;fill-opacity:1;stroke:none;stroke-width:0.264583px;stroke-linecap:butt;stroke-linejoin:miter;stroke-opacity:1"
           d="m 66.818181,-3332.6408 0.806656,-2.0167 1.142768,-4.6381 c 11.621247,-38.8623 45.745665,-19.5494 50.685015,-6.1172 1.86585,0.8096 3.20803,1.871 4.50384,3.361 3.22762,6.2821 -5.55829,7.8741 -9.88156,8.7389 -19.142052,10.9374 -31.228973,5.9492 -40.400127,0.4705 H 73.00256 l -2.756083,1.3443 z"
           id="path1456" /><path
           style="fill:#166d00;fill-opacity:1;stroke:none;stroke-width:0.264583px;stroke-linecap:butt;stroke-linejoin:miter;stroke-opacity:1"
           d="m 49.386563,-3289.0785 c -2.682933,3.8632 -4.353952,1.1078 -5.32367,-0.5704 -2.704374,-11.5187 -1.686409,-16.0827 6.607052,-25.0974 5.049985,-8.5157 8.668268,-13.0983 16.684008,-18.5377 l 3.279762,-3.5174 2.947032,-3.2324 c -0.773977,2.5142 -2.125557,4.7586 -3.232229,7.13 v 1.2358 l 2.804435,-1.1408 0.808056,0.095 c 11.614086,7.1205 21.858658,6.9708 34.698941,2.2815 4.31631,-3.0364 6.24222,-3.2856 11.21774,-4.1828 6.04044,-3.1552 6.12186,-5.3625 2.66183,-9.0313 -2.99345,-1.1081 -4.26736,-3.4165 -6.0842,-5.8941 l 4.75328,0.4752 c 9.47509,2.1329 18.24945,5.991 26.94761,10.1727 10.66546,5.9048 16.77092,9.1082 22.31754,18.1498 -7.52807,-3.7681 -19.94576,1.0436 -27.56082,6.4533 l -1.8822,0.6723 c -0.16437,-0.9966 -0.51755,-1.9393 1.74776,-3.6301 14.50856,-11.5569 2.62333,-13.7998 -5.78105,-6.8564 -12.73356,11.6945 -16.30608,-3.3096 -43.559547,4.1677 -8.645832,0.6324 -10.43467,0.2179 -21.473261,-3.4615 -2.800279,4.134 -3.050324,4.3754 -14.423024,11.259 -11.423319,5.2728 -5.854821,13.8591 -8.155045,23.06 z"
           id="path1457" /><path
           style="fill:#29aa09;fill-opacity:1;stroke:none;stroke-width:0.264583px;stroke-linecap:butt;stroke-linejoin:miter;stroke-opacity:1"
           d="m 70.34731,-3332.9096 h 0.168053 l 0.773049,-2.0167 c 6.076278,-28.3428 35.494858,-29.8609 43.027938,-3.2536 l 2.6143,3.4698 -6.08419,-0.9031 c -8.64957,6.9822 -23.412602,9.8645 -34.794003,-0.1426 z"
           id="path1458" /><path
           style="fill:#000000;stroke:none;stroke-width:0.264583px;stroke-linecap:butt;stroke-linejoin:miter;stroke-opacity:1"
           d="m 76.908045,-3337.7997 1.66365,-5.1334 c 5.117371,-17.1693 26.991945,-13.5238 29.565395,-0.9509 l 1.61611,4.4683 2.32911,2.4717 -3.51743,0.2376 c -16.525065,10.9449 -26.958057,4.3767 -30.325915,-0.5702 z"
           id="path1459" /><path
           style="fill:#ffffff;stroke:none;stroke-width:0.264583px;stroke-linecap:butt;stroke-linejoin:miter;stroke-opacity:1"
           d="m 80.781968,-3344.5018 c -1.80366,-0.2184 -0.688623,-1.9191 0.09506,-2.757 2.796543,-0.1064 3.666846,2.0896 -0.09506,2.757 z"
           id="path1460" /><path
           style="fill:#ffffff;stroke:none;stroke-width:0.264583px;stroke-linecap:butt;stroke-linejoin:miter;stroke-opacity:1"
           d="m 101.23559,-3343.3961 c 0.23875,2.7851 -1.539519,3.9346 -2.050233,-0.3699 l -0.739436,-0.4369 c -3.748599,-0.2076 -5.737926,4.4474 0.806659,4.8067 l 2.25192,-0.2691 c 3.60451,-1.3183 0.98273,-3.8562 0.3025,-3.9997 z"
           id="path1461" /><path
           style="fill:#000000;stroke:none;stroke-width:0.264583px;stroke-linecap:butt;stroke-linejoin:miter;stroke-opacity:1"
           d="m 146.10595,-3323.8011 c -1.94912,-0.018 -3.73351,0.136 -5.17605,1.4792 0.68099,-2.4042 2.36855,-3.0437 4.53745,-3.8651 3.27659,-0.077 2.23656,1.7671 0.6386,2.3859 z"
           id="path1462" /><path
           style="fill:#1a8200;fill-opacity:1;stroke:none;stroke-width:0.264583px;stroke-linecap:butt;stroke-linejoin:miter;stroke-opacity:1"
           d="m 171.39169,-3304.4293 c -2.80785,-6.6695 -31.62023,-0.2804 -42.29264,2.707 -6.96648,1.1466 -10.61036,2.6646 -12.73879,3.3274 -19.146503,9.7506 -38.089543,0.6618 -55.898558,-7.1301 l -2.186507,-0.3802 c -4.210455,-4.2202 -10.802141,5.6446 -3.612493,15.4956 9.652162,3.6195 26.3546,8.4029 59.320918,1.616 14.63241,-5.7419 24.39067,-3.8124 39.92754,-2.2817 6.32411,0.4106 11.4292,2.2565 14.92529,-2.4718 1.13103,-3.6608 1.20713,-4.3126 -0.55787,-7.5484 2.21414,-1.969 1.96429,-2.1276 3.11311,-3.3338 z"
           id="path1463" /><path
           style="fill:#000000;stroke:none;stroke-width:0.264583px;stroke-linecap:butt;stroke-linejoin:miter;stroke-opacity:1"
           d="m 168.12099,-3301.45 c -0.92207,0.3001 -0.24066,2.2488 -8.74449,2.5366 -39.52983,-5.1419 -50.0499,20.1645 -96.348028,-2.2386 -4.950709,-0.5904 -3.753244,5.909 0.380258,6.5595 50.21896,12.9972 60.01858,-8.616 96.01622,-3.7078 1.86471,-0.3691 6.2198,0.2024 8.88822,-2.6847 z"
           id="path1464" /><path
           style="fill:#166d00;fill-opacity:1;stroke:none;stroke-width:0.264583px;stroke-linecap:butt;stroke-linejoin:miter;stroke-opacity:1"
           d="m 77.668571,-3281.9488 c 17.881525,2.0872 49.394759,-13.1609 22.625609,11.503 -5.531675,6.3923 -6.703455,7.8472 -9.696691,17.4922 -0.535702,-9.0285 2.630219,-13.4219 6.84472,-20.9145 0.743294,-2.9017 1.453717,-4.2474 -1.711179,-5.0385 -6.396325,-1.2893 -13.47501,1.9293 -18.062459,-3.0422 z"
           id="path1465" /><path
           style="fill:#1a8200;fill-opacity:1;stroke:none;stroke-width:0.264583px;stroke-linecap:butt;stroke-linejoin:miter;stroke-opacity:1"
           d="m 142.59836,-3265.3123 c 2.55322,7.172 3.36972,10.7614 1.79344,18.4462 12.41174,24.802 -5.39078,41.3125 7.1927,51.626 l 4.77273,5.5124 1.41165,1.5459 c 4.88734,6.8241 7.67722,15.7658 -2.75608,16.1333 -1.80094,3.335 -3.47716,6.3714 -10.15045,4.3693 -7.1987,2.2846 -7.56283,3.7286 -13.64596,0.6051 -3.56607,-1.3046 -8.32207,-1.5069 -13.30986,-2.2183 -1.55298,-1.3554 -1.60811,-2.5212 -0.0672,-3.7842 -0.10286,-3.2378 1.75875,-5.3972 3.62996,-7.8453 3.97489,-10.4792 0.91265,-0.5989 6.18438,-16.2676 3.14523,-6.3914 3.47187,-14.0368 4.97439,-21.1074 -0.0708,-6.7273 3.98181,-11.9501 6.5877,-17.8139 2.73048,-7.3379 1.32002,-14.4601 0.47058,-22.0485 l 0.3361,-5.3777 z"
           id="path1466" /><path
           style="fill:#1a8200;fill-opacity:1;stroke:none;stroke-width:0.264583px;stroke-linecap:butt;stroke-linejoin:miter;stroke-opacity:1"
           d="m 38.501555,-3297.3018 c 3.447349,3.4872 2.619697,4.9848 3.184697,10.0293 1.196924,4.339 2.212505,4.7211 7.890444,0.6657 l 0.808056,-0.2378 1.093255,0.048 c 16.732843,6.8724 27.593422,23.4703 27.711612,23.6712 4.439596,7.5146 3.940095,15.4903 3.707558,23.8615 -4.982705,9.8812 -14.560404,13.7926 -24.526917,16.9217 -7.440682,1.9327 -3.304957,7.3358 1.045721,13.9747 3.282281,5.2781 4.992598,11.0566 6.84472,16.9217 12.634166,18.2788 21.585395,19.2628 33.764909,17.1794 5.29197,-1.4319 8.64604,-0.7792 9.0749,3.6298 l 1.20999,0.7395 c 7.30238,1.3916 12.55716,8.0143 10.15045,12.3018 l -1.47888,1.4787 c 1.76231,6.6794 -0.0932,7.2561 -6.04997,9.9489 l -3.62996,1.2771 c -5.1463,4.3546 -8.91222,6.4297 -18.822019,5.3105 l -20.838667,-5.9825 -15.931499,-10.7556 -19.427015,-17.0741 -4.03329,-5.0416 -6.856595,-9.344 -1.882202,-2.2855 c -15.8676798,-17.8346 -13.9964442,-32.4948 -1.882202,-46.2484 4.551617,-6.903 7.822422,-7.81 14.788731,-11.2932 4.015101,-3.7386 6.692414,-5.9529 -0.672213,-4.0333 l -1.613318,0.6723 c -13.654817,11.1718 -21.810546,1.6527 -27.4263752,-5.5123 -0.534315,-9.8844 0.964039,-13.9315 7.9657492,-21.1747 5.188281,-8.4745 12.789299,-11.944 20.939501,-16.738 z"
           id="path1467" /><path
           style="fill:#166d00;fill-opacity:1;stroke:none;stroke-width:0.264583px;stroke-linecap:butt;stroke-linejoin:miter;stroke-opacity:1"
           d="m 35.492957,-3273.1498 c 6.947147,2.0535 10.315254,-0.8907 12.43598,-7.3943 0.960829,-5.3296 3.761572,-4.0156 4.436618,1.6806 3.513849,7.6838 6.288792,13.8506 7.12548,22.3846 l -0.941102,1.815 c -5.644428,2.1955 -11.356796,-2.5035 -15.528168,-6.1844 -6.605399,-1.2047 -6.454255,-1.7582 -7.730474,-8.3354 -0.101157,-1.2799 -0.629791,-2.453 0.201666,-3.9661 z"
           id="path1529" /><path
           style="fill:#000000;stroke:none;stroke-width:0.264583px;stroke-linecap:butt;stroke-linejoin:miter;stroke-opacity:1"
           d="m 6.1792622,-3248.8658 0.095065,-0.2376 -1.8062456,-8.1283 1.9488441,2.852 c 6.9063053,8.5654 15.8666493,11.2655 24.6394103,4.0179 3.893701,-2.6788 9.439096,-3.0529 6.789373,-0.4033 l -3.428297,3.2267 c -7.125571,3.0021 -9.997398,5.1436 -14.587067,11.0244 -6.446689,-1.4437 -6.889586,-1.6033 -9.9487834,-6.9239 -2.5015641,-2.1068 -5.4846747,-3.3658 -8.4026887,-4.7725 1.5540199,-0.6346 3.0574158,-0.9377 4.7003893,-0.6554 z"
           id="path1530" /><path
           style="fill:#1a8200;fill-opacity:1;stroke:none;stroke-width:0.264583px;stroke-linecap:butt;stroke-linejoin:miter;stroke-opacity:1"
           d="m -5.7039343,-3247.1547 c 2.4802399,1.8766 1.7239287,1.7763 0.3802625,4.5632 -0.9549018,1.2573 -1.3402009,2.0104 -0.6179262,3.3748 2.9580086,-2.7333 4.2309524,-4.4265 5.56133582,-8.1756 -1.79732922,0.7615 -3.44336892,0.4341 -5.32367212,0.2376 z"
           id="path1531" /><path
           style="fill:#166d00;fill-opacity:1;stroke:none;stroke-width:0.264583px;stroke-linecap:butt;stroke-linejoin:miter;stroke-opacity:1"
           d="m 18.284251,-3231.2035 c 14.478207,-4.8263 24.453253,-0.3851 6.184378,12.3687 -20.0638157,17.8695 -16.0027957,-4.5618 -6.184378,-12.3687 z"
           id="path1532" /><path
           style="fill:#166d00;fill-opacity:1;stroke:none;stroke-width:0.264583px;stroke-linecap:butt;stroke-linejoin:miter;stroke-opacity:1"
           d="m 20.03201,-3192.2151 c 16.005484,-5.7364 29.304272,-4.616 11.293214,13.9822 l -0.806659,0.2688 -4.302176,-5.7811 -3.361076,-4.571 z"
           id="path1534" /><path
           style="fill:#105200;fill-opacity:1;stroke:none;stroke-width:0.264583px;stroke-linecap:butt;stroke-linejoin:miter;stroke-opacity:1"
           d="m 14.72151,-3199.5422 c -4.220163,4.8794 -8.5764784,6.0077 -18.8892435,2.9578 4.98459452,3.5041 10.9477495,2.7243 16.7381555,3.025 3.936395,0.5038 6.736274,2.8327 9.948784,4.9744 -2.89479,-3.8486 -5.393609,-6.7185 -7.797696,-10.9572 z"
           id="path1538" /><path
           style="fill:#000000;stroke:none;stroke-width:0.264583px;stroke-linecap:butt;stroke-linejoin:miter;stroke-opacity:1"
           d="m 154.95688,-3172.148 c 1.61922,-3.9111 1.17517,-6.1368 0.19013,-10.0769 -3.56339,-3.5296 -4.71142,-5.767 -6.0842,-10.4572 0.3494,4.6083 2.63769,7.4741 5.60887,10.7424 1.32365,3.6783 1.06355,6.0948 0.2852,9.7917 z"
           id="path1539" /><path
           style="fill:#000000;stroke:none;stroke-width:0.264583px;stroke-linecap:butt;stroke-linejoin:miter;stroke-opacity:1"
           d="m 147.2508,-3167.0932 c -2.59091,-2.107 -2.18074,-3.617 -2.18074,-6.7183 2.26668,-4.6669 2.71166,-6.1441 1.23581,-9.6493 -2.04395,-2.7868 -2.05502,-3.4686 -1.90128,-10.0769 l -0.38026,5.1334 c -0.27549,10.6025 2.54094,6.5123 0.4754,14.5452 0.28942,2.633 0.83236,5.7494 -1.99638,7.0348 2.23086,-1.185 3.18104,-1.0714 4.74745,-0.2689 z"
           id="path1540" /><path
           style="fill:#000000;stroke:none;stroke-width:0.264583px;stroke-linecap:butt;stroke-linejoin:miter;stroke-opacity:1"
           d="m 131.76088,-3166.8243 c -1.2572,-2.6715 -0.84184,-6.6622 0.66546,-11.6929 5.13721,-4.6338 3.77371,-10.3166 2.56677,-16.3514 1.3058,7.8411 -0.84316,9.311 -4.08782,15.2104 0.27816,5.9682 1.06269,10.3422 -5.41871,11.2178 l 3.80263,0.8557 z"
           id="path1541" /><path
           style="fill:#000000;stroke:none;stroke-width:0.264583px;stroke-linecap:butt;stroke-linejoin:miter;stroke-opacity:1"
           d="m 106.09318,-3142.2022 c 4.45294,-6.7848 -2.01953,-14.9906 -8.141902,-14.2831 -7.568914,1.3377 -8.901282,0.4094 -14.483747,-4.4449 6.36282,5.4445 8.966543,4.1541 16.51834,3.5732 6.216469,0.8006 6.797419,4.6456 8.674039,9.8311 1.0687,1.0472 2.02112,1.526 3.42236,1.8061 l -2.56677,0.6656 z"
           id="path1542" /><path
           style="fill:#000000;stroke:none;stroke-width:0.264583px;stroke-linecap:butt;stroke-linejoin:miter;stroke-opacity:1"
           d="m 118.92703,-3155.7015 c -3.04973,-4.4196 -5.41947,-6.6906 -11.02761,-5.9891 -7.87923,-0.5052 -12.304497,-0.6655 -18.918046,-4.4683 5.876783,2.9243 12.214256,2.9592 18.632856,3.4224 7.00696,-1.0004 8.69954,0.9367 11.3128,7.035 z"
           id="path1543" /><path
           style="fill:#000000;stroke:none;stroke-width:0.264583px;stroke-linecap:butt;stroke-linejoin:miter;stroke-opacity:1"
           d="m 113.79349,-3168.4404 c -2.53967,-1.0126 -5.37032,-0.6261 -7.92504,-0.079 -4.34237,-0.048 -8.928713,0.8123 -12.133797,-2.393 6.688747,4.5914 11.827707,-1.16 20.058837,2.4717 z"
           id="path1544" /><path
           style="fill:#000000;stroke:none;stroke-width:0.264583px;stroke-linecap:butt;stroke-linejoin:miter;stroke-opacity:1"
           d="m 14.824463,-3161.3835 c 4.569579,-3.0463 2.638764,-7.1645 0.956426,-8.3878 -0.452566,-1.5233 -0.134036,-2.3366 0.475328,-3.7076 0.428252,-3.7115 0.270168,-5.4839 -1.330918,-11.4077 1.130632,4.663 5.995939,10.7002 3.802618,15.4006 -0.857239,3.7714 -0.782825,6.0053 3.763246,8.9465 -3.303028,-1.5562 -4.402257,-1.8375 -7.6667,-0.844 z"
           id="path1545" /><path
           style="fill:#000000;stroke:none;stroke-width:0.264583px;stroke-linecap:butt;stroke-linejoin:miter;stroke-opacity:1"
           d="m 36.029852,-3161.6906 c 3.734878,-5.7073 -2.391577,-11.4739 -3.992756,-11.3128 -0.780469,-2.4418 -1.854421,-4.7721 -2.851967,-7.13 1.999972,2.4453 3.783719,5.0074 5.418738,7.7002 1.225631,1.1206 2.466415,2.2241 3.707558,3.3274 -0.144231,3.3651 -1.040467,5.1805 1.140784,8.2706 -1.11688,-0.3845 -2.269536,-0.6127 -3.422357,-0.8554 z"
           id="path1546" /></g></g><g
       id="g3965"
       transform="matrix(0.69729604,0,0,0.69729604,40.161829,-333.2852)"><text
         xml:space="preserve"
         style="font-size:42.9942px;line-height:1.15;font-family:Stengazeta;-inkscape-font-specification:Stengazeta;display:inline;stroke-width:1.3266"
         id="text3962"><textPath
           xlink:href="#circle3962"
           id="textPath3962"><tspan
             id="tspan3962"
             style="stroke-width:1.3266">real time player rating</tspan></textPath></text><path
         id="circle3962"
         style="display:inline;opacity:1;fill:#ffffff;fill-opacity:1;stroke-width:10;stroke-linecap:round;stroke-linejoin:round;stroke-miterlimit:3.1"
         d="m 2283.1645,-6.2670686 a 98.107674,98.107674 0 0 1 -35.9301,-134.0121114 98.107674,98.107674 0 0 1 134.0122,-35.93013 98.107674,98.107674 0 0 1 35.9301,134.012174 98.107674,98.107674 0 0 1 -134.0122,35.9300674 z" /></g><g
       id="g4185"
       transform="matrix(0.69729604,0,0,0.69729604,1596.3088,-333.2852)"><text
         xml:space="preserve"
         style="font-size:42.9942px;line-height:1.15;font-family:Stengazeta;-inkscape-font-specification:Stengazeta;display:inline;stroke-width:1.3266"
         id="text4183"><textPath
           xlink:href="#circle3962"
           id="textPath4183"><tspan
             id="tspan4183"
             style="stroke-width:1.3266">real time player rating</tspan></textPath></text></g><g
       id="g4188"
       transform="matrix(0.69729604,0,0,0.69729604,2809.5227,-333.2852)"><text
         xml:space="preserve"
         style="font-size:42.9942px;line-height:1.15;font-family:Stengazeta;-inkscape-font-specification:Stengazeta;display:inline;stroke-width:1.3266"
         id="text4186"><textPath
           xlink:href="#circle3962"
           id="textPath4186"><tspan
             id="tspan4186"
             style="stroke-width:1.3266">real time player rating</tspan></textPath></text></g></g></svg>
